<svg id="Layer_1" data-name="Layer 1" xmlns="http://www.w3.org/2000/svg" xmlns:xlink="http://www.w3.org/1999/xlink" viewBox="0 0 175 38"><defs><style>.cls-1{fill:url(#linear-gradient);}.cls-2{fill:url(#linear-gradient-2);}.cls-3{fill:url(#linear-gradient-3);}.cls-4{fill:url(#linear-gradient-4);}.cls-5{font-size:22.72px;font-family:Calibri, Calibri;}.cls-6{letter-spacing:-0.02em;}</style><linearGradient id="linear-gradient" x1="22.66" y1="21.29" x2="39.28" y2="41.62" gradientUnits="userSpaceOnUse"><stop offset="0" stop-color="#9b05f0"/><stop offset="0.5" stop-color="#c132ff"/><stop offset="1" stop-color="#9400f0"/></linearGradient><linearGradient id="linear-gradient-2" x1="28.02" y1="15.2" x2="14.71" y2="29.81" xlink:href="#linear-gradient"/><linearGradient id="linear-gradient-3" x1="-9842.33" y1="5.46" x2="-9825.78" y2="5.46" gradientTransform="matrix(-1, 0, 0, 1, -9811.39, 0)" gradientUnits="userSpaceOnUse"><stop offset="0" stop-color="#c238ff"/><stop offset="0.5" stop-color="#c132ff"/><stop offset="1" stop-color="#cb52ff"/></linearGradient><linearGradient id="linear-gradient-4" x1="4.01" y1="11.78" x2="8.99" y2="22.24" xlink:href="#linear-gradient"/></defs><title>logo-175x380-hitam2</title><path class="cls-1" d="M16.75,7a5.85,5.85,0,0,0-2.63,4.65c0,7.53,10.38,20.72,18.85,25.4,0-.16,0-6.94,0-6.94C27.37,28.19,17.35,13.86,16.75,7Z"/><path class="cls-2" d="M14.76,26.5C19.07,22.23,28.05,13,28.58,7a5.91,5.91,0,0,1,2.63,4.65c-.08,4.65-8.65,17.55-11.49,20.09l-4.34-1.28Z"/><path class="cls-3" d="M20.37,1.07a16.83,16.83,0,0,1,4.58,0c3.54,1,4.6,5.22,6,8.93-3.57-4.54-13.2-4-16.56,0C16,5.56,15.84,2.3,20.37,1.07Z"/><path class="cls-4" d="M0,16.41C4.66,17.67,10.84,39.3,19.73,31.78h0a22.12,22.12,0,0,1-5.23-5.61c-3.17-4.64-5-9.07-13.64-9.69Z"/><text class="cls-5" transform="translate(32.98 24.89)">Aman Be<tspan class="cls-6" x="82.92" y="0">r</tspan><tspan x="90.45" y="0">sama</tspan></text></svg>