<svg id="Layer_1" data-name="Layer 1" xmlns="http://www.w3.org/2000/svg" xmlns:xlink="http://www.w3.org/1999/xlink" viewBox="0 0 158 34"><defs><style>.cls-1{fill:url(#linear-gradient);}.cls-2{fill:url(#linear-gradient-2);}.cls-3{fill:url(#linear-gradient-3);}.cls-4{fill:url(#linear-gradient-4);}.cls-5{font-size:21.7px;fill:#fff;font-family:Calibri-Bold, Calibri;}.cls-6{font-weight:700;}.cls-7,.cls-8{font-family:Calibri, Calibri;}.cls-8{letter-spacing:-0.02em;}</style><linearGradient id="linear-gradient" x1="21.02" y1="19.08" x2="36.11" y2="37.54" gradientUnits="userSpaceOnUse"><stop offset="0" stop-color="#9b05f0"/><stop offset="0.5" stop-color="#c132ff"/><stop offset="1" stop-color="#9400f0"/></linearGradient><linearGradient id="linear-gradient-2" x1="25.89" y1="13.55" x2="13.8" y2="26.82" xlink:href="#linear-gradient"/><linearGradient id="linear-gradient-3" x1="-9855.93" y1="4.7" x2="-9840.89" y2="4.7" gradientTransform="matrix(-1, 0, 0, 1, -9827.39, 0)" gradientUnits="userSpaceOnUse"><stop offset="0" stop-color="#c238ff"/><stop offset="0.5" stop-color="#c132ff"/><stop offset="1" stop-color="#cb52ff"/></linearGradient><linearGradient id="linear-gradient-4" x1="4.08" y1="10.44" x2="8.6" y2="19.94" xlink:href="#linear-gradient"/></defs><title>logo-158x34-putih</title><path class="cls-1" d="M15.65,6.14a5.31,5.31,0,0,0-2.39,4.22c0,6.84,9.43,18.81,17.12,23.06,0-.14,0-6.31,0-6.31C25.29,25.35,16.2,12.34,15.65,6.14Z"/><path class="cls-2" d="M13.84,23.81c3.92-3.88,12.07-12.23,12.56-17.67a5.37,5.37,0,0,1,2.39,4.22c-.07,4.22-7.85,15.94-10.44,18.25l-3.94-1.16Z"/><path class="cls-3" d="M18.94.72a15.28,15.28,0,0,1,4.16,0c3.22.87,4.17,4.74,5.44,8.11-3.24-4.13-12-3.64-15,0C15,4.8,14.82,1.84,18.94.72Z"/><path class="cls-4" d="M.44,14.65c4.23,1.14,9.85,20.79,17.91,14h0a20.09,20.09,0,0,1-4.75-5.1c-2.88-4.21-4.52-8.23-12.39-8.8Z"/><text class="cls-5" transform="translate(28.56 22.37) scale(0.95 1)"><tspan class="cls-6">A</tspan><tspan class="cls-7" x="13.15" y="0">man Be</tspan><tspan class="cls-8" x="79.8" y="0">r</tspan><tspan class="cls-7" x="87" y="0">sama</tspan></text></svg>